<svg id="visual" viewBox="0 0 2500 1600" width="2500" height="1600" xmlns="http://www.w3.org/2000/svg" xmlns:xlink="http://www.w3.org/1999/xlink" version="1.1"><rect x="0" y="0" width="2500" height="1600" fill="#EAF3F2"></rect><path d="M0 886L52.2 905.8C104.3 925.7 208.7 965.3 312.8 978C417 990.7 521 976.3 625.2 953C729.3 929.7 833.7 897.3 937.8 877.2C1042 857 1146 849 1250.2 839.2C1354.3 829.3 1458.7 817.7 1562.8 788.2C1667 758.7 1771 711.3 1875.2 694.2C1979.3 677 2083.7 690 2187.8 700.7C2292 711.3 2396 719.7 2448 723.8L2500 728L2500 1601L2448 1601C2396 1601 2292 1601 2187.8 1601C2083.7 1601 1979.3 1601 1875.2 1601C1771 1601 1667 1601 1562.8 1601C1458.7 1601 1354.3 1601 1250.2 1601C1146 1601 1042 1601 937.8 1601C833.7 1601 729.3 1601 625.2 1601C521 1601 417 1601 312.8 1601C208.7 1601 104.3 1601 52.2 1601L0 1601Z" fill="#c8d6d6"></path><path d="M0 1134L52.2 1098.3C104.3 1062.7 208.7 991.3 312.8 990.2C417 989 521 1058 625.2 1067.5C729.3 1077 833.7 1027 937.8 1016.7C1042 1006.3 1146 1035.7 1250.2 1008.8C1354.3 982 1458.7 899 1562.8 876.8C1667 854.7 1771 893.3 1875.2 890.5C1979.3 887.7 2083.7 843.3 2187.8 875.3C2292 907.3 2396 1015.7 2448 1069.8L2500 1124L2500 1601L2448 1601C2396 1601 2292 1601 2187.8 1601C2083.7 1601 1979.3 1601 1875.2 1601C1771 1601 1667 1601 1562.8 1601C1458.7 1601 1354.3 1601 1250.2 1601C1146 1601 1042 1601 937.8 1601C833.7 1601 729.3 1601 625.2 1601C521 1601 417 1601 312.8 1601C208.7 1601 104.3 1601 52.2 1601L0 1601Z" fill="#b4c5c3"></path><path d="M0 1053L52.2 1047.2C104.3 1041.3 208.7 1029.7 312.8 1024.8C417 1020 521 1022 625.2 1024.8C729.3 1027.7 833.7 1031.3 937.8 1071.8C1042 1112.3 1146 1189.7 1250.2 1225C1354.3 1260.3 1458.7 1253.7 1562.8 1244C1667 1234.3 1771 1221.7 1875.2 1219C1979.3 1216.3 2083.7 1223.7 2187.8 1188.2C2292 1152.7 2396 1074.3 2448 1035.2L2500 996L2500 1601L2448 1601C2396 1601 2292 1601 2187.8 1601C2083.7 1601 1979.3 1601 1875.2 1601C1771 1601 1667 1601 1562.8 1601C1458.7 1601 1354.3 1601 1250.2 1601C1146 1601 1042 1601 937.8 1601C833.7 1601 729.3 1601 625.2 1601C521 1601 417 1601 312.8 1601C208.7 1601 104.3 1601 52.2 1601L0 1601Z" fill="#a2b5b0"></path><path d="M0 1343L52.2 1312.5C104.3 1282 208.7 1221 312.8 1191.5C417 1162 521 1164 625.2 1188.2C729.3 1212.3 833.7 1258.7 937.8 1280.5C1042 1302.3 1146 1299.7 1250.2 1281C1354.3 1262.3 1458.7 1227.7 1562.8 1203.8C1667 1180 1771 1167 1875.2 1160.8C1979.3 1154.7 2083.7 1155.3 2187.8 1153.2C2292 1151 2396 1146 2448 1143.5L2500 1141L2500 1601L2448 1601C2396 1601 2292 1601 2187.8 1601C2083.7 1601 1979.3 1601 1875.2 1601C1771 1601 1667 1601 1562.8 1601C1458.7 1601 1354.3 1601 1250.2 1601C1146 1601 1042 1601 937.8 1601C833.7 1601 729.3 1601 625.2 1601C521 1601 417 1601 312.8 1601C208.7 1601 104.3 1601 52.2 1601L0 1601Z" fill="#91a49c"></path><path d="M0 1374L52.2 1391.7C104.3 1409.3 208.7 1444.7 312.8 1451.7C417 1458.7 521 1437.3 625.2 1431.2C729.3 1425 833.7 1434 937.8 1424.5C1042 1415 1146 1387 1250.2 1397C1354.3 1407 1458.7 1455 1562.8 1459.7C1667 1464.3 1771 1425.7 1875.2 1414.5C1979.3 1403.3 2083.7 1419.7 2187.8 1421.3C2292 1423 2396 1410 2448 1403.5L2500 1397L2500 1601L2448 1601C2396 1601 2292 1601 2187.8 1601C2083.7 1601 1979.3 1601 1875.2 1601C1771 1601 1667 1601 1562.8 1601C1458.7 1601 1354.3 1601 1250.2 1601C1146 1601 1042 1601 937.8 1601C833.7 1601 729.3 1601 625.2 1601C521 1601 417 1601 312.8 1601C208.7 1601 104.3 1601 52.2 1601L0 1601Z" fill="#819488"></path></svg>